<svg width="77" height="78" viewBox="0 0 77 78" fill="none" xmlns="http://www.w3.org/2000/svg">
<path d="M38.6002 76.6704C59.8082 76.6704 77.0002 73.5704 77.0002 69.7456C77.0002 65.9216 59.8082 62.8216 38.6002 62.8216C17.3922 62.8216 0.200195 65.9216 0.200195 69.7456C0.200195 73.5696 17.3922 76.6704 38.6002 76.6704Z" fill="url(#paint0_radial_1_1498)"/>
<path d="M38.6002 62.192C59.8082 62.192 77.0002 48.5224 77.0002 31.6608C77.0002 14.7984 59.8082 1.12958 38.6002 1.12958C17.3922 1.12958 0.200195 14.7992 0.200195 31.66C0.200195 48.5208 17.3922 62.192 38.6002 62.192Z" fill="url(#paint1_radial_1_1498)"/>
<path fill-rule="evenodd" clip-rule="evenodd" d="M60.5009 60.9992C60.6416 60.6438 60.6711 60.254 60.5854 59.8815C60.4998 59.509 60.3031 59.1712 60.0213 58.9129C59.7396 58.6546 59.3861 58.4879 59.0075 58.4348C58.629 58.3817 58.2432 58.4448 57.9013 58.6157C57.5594 58.7866 57.2774 59.0573 57.0926 59.3919C56.9079 59.7265 56.829 60.1093 56.8665 60.4897C56.904 60.8701 57.0561 61.2302 57.3027 61.5223C57.5492 61.8144 57.8786 62.0248 58.2473 62.1256C58.1977 62.2512 58.1617 62.3816 58.1401 62.5144C57.5613 62.8475 57.1384 63.3967 56.9642 64.0414C56.7901 64.6861 56.879 65.3736 57.2113 65.9528C57.376 66.2396 57.5955 66.4912 57.8574 66.6931C58.1193 66.895 58.4184 67.0434 58.7377 67.1296C59.0569 67.2159 59.39 67.2384 59.718 67.1958C60.0459 67.1533 60.3623 67.0465 60.6489 66.8816C60.6981 67.3149 60.859 67.7279 61.1157 68.0803C61.3725 68.4327 61.7163 68.7125 62.1136 68.8921C62.5109 69.0718 62.948 69.1452 63.3822 69.1052C63.8164 69.0652 64.2327 68.9132 64.5905 68.664C64.7113 68.9183 64.8874 69.1424 65.1059 69.3199C65.3244 69.4973 65.5799 69.6237 65.8535 69.6897C66.1272 69.7556 66.4122 69.7596 66.6876 69.7012C66.9629 69.6428 67.2218 69.5236 67.4452 69.3523C67.6685 69.181 67.8507 68.9618 67.9785 68.711C68.1062 68.4601 68.1763 68.1839 68.1834 67.9025C68.1906 67.621 68.1348 67.3416 68.02 67.0845C67.9053 66.8275 67.7345 66.5993 67.5201 66.4168C67.9577 65.9382 68.1937 65.3093 68.1792 64.661C68.1646 64.0128 67.9005 63.3951 67.442 62.9366C66.9834 62.4781 66.3657 62.2142 65.7174 62.1998C65.0691 62.1854 64.4402 62.4216 63.9617 62.8592C63.7068 62.5573 63.3634 62.3431 62.9801 62.2471C62.5967 62.151 62.1929 62.1779 61.8257 62.324C61.7389 62.0072 61.5711 61.7184 61.3388 61.4861C61.1065 61.2538 60.8178 61.086 60.5009 60.9992ZM19.7145 62.1912C19.7145 62.4392 19.6793 62.6864 19.6073 62.9232C20.0895 63.0437 20.5401 63.2666 20.9285 63.5767C21.3169 63.8868 21.6339 64.2769 21.8581 64.7205C22.0823 65.164 22.2084 65.6507 22.2278 66.1473C22.2472 66.6439 22.1594 67.1389 21.9705 67.5986C21.7815 68.0583 21.4959 68.4719 21.1328 68.8114C20.7698 69.1508 20.338 69.4081 19.8667 69.5658C19.3953 69.7235 18.8956 69.7779 18.4014 69.7253C17.9072 69.6727 17.4301 69.5142 17.0025 69.2608C16.6117 69.5753 16.125 69.7464 15.6233 69.7456C15.2417 69.7464 14.8665 69.6472 14.5353 69.4592C14.3935 69.7708 14.1539 70.0277 13.8528 70.1907C13.5518 70.3537 13.2057 70.4141 12.8673 70.3626C12.5288 70.3111 12.2164 70.1506 11.9774 69.9054C11.7385 69.6602 11.5861 69.3437 11.5433 69.004C11.2587 69.1066 10.9536 69.1393 10.6537 69.0993C10.3538 69.0594 10.0679 68.9479 9.82008 68.7743C9.57226 68.6008 9.36978 68.3702 9.22969 68.102C9.08961 67.8339 9.01603 67.536 9.01514 67.2334C9.01426 66.9309 9.0861 66.6325 9.22461 66.3635C9.36312 66.0946 9.56425 65.8628 9.81105 65.6878C10.0578 65.5128 10.3431 65.3997 10.6428 65.3579C10.9424 65.3162 11.2477 65.3471 11.5329 65.448C11.5155 65.0452 11.5951 64.644 11.765 64.2783C11.9348 63.9126 12.1901 63.5931 12.5091 63.3465C12.8282 63.0999 13.2018 62.9336 13.5985 62.8615C13.9953 62.7894 14.4035 62.8136 14.7889 62.932C14.6825 62.5857 14.652 62.2204 14.6996 61.8612C14.7471 61.502 14.8717 61.1573 15.0647 60.8506C15.2577 60.5439 15.5146 60.2825 15.8179 60.0842C16.1212 59.8859 16.4637 59.7553 16.822 59.7015C17.1803 59.6477 17.5461 59.6718 17.8942 59.7722C18.2424 59.8727 18.5648 60.0471 18.8394 60.2835C19.1139 60.5199 19.3343 60.8128 19.4853 61.1422C19.6364 61.4716 19.7146 61.8289 19.7145 62.1912Z" fill="url(#paint2_radial_1_1498)"/>
<path fill-rule="evenodd" clip-rule="evenodd" d="M41.7473 16.8672C41.7473 17.1776 41.6913 17.4752 41.5889 17.7488C41.7761 17.84 41.9505 17.9536 42.1089 18.0864C42.3612 17.667 42.7303 17.3302 43.1711 17.1174C43.6118 16.9045 44.1051 16.8248 44.5905 16.888C44.8669 16.3968 45.3001 16.0125 45.8208 15.7967C46.3415 15.5809 46.9196 15.5461 47.4624 15.6979C48.0053 15.8496 48.4815 16.1791 48.8148 16.6337C49.1481 17.0882 49.3193 17.6414 49.3009 18.2048C49.6283 18.2896 49.9354 18.4394 50.2038 18.6453C50.4722 18.8512 50.6965 19.1089 50.8633 19.4032C51.4897 19.4792 52.0641 19.7872 52.4737 20.2656C53.0915 20.0019 53.7775 19.9428 54.4313 20.0969C55.0852 20.251 55.6726 20.6102 56.1077 21.122C56.5428 21.6337 56.8027 22.2713 56.8496 22.9414C56.8964 23.6115 56.7277 24.279 56.3681 24.8464C56.8153 25.1464 57.1545 25.5808 57.3377 26.088C57.7186 25.5668 58.2851 25.2117 58.9203 25.0962C59.5555 24.9806 60.2107 25.1134 60.7508 25.4671C61.2909 25.8209 61.6745 26.3685 61.8224 26.9969C61.9703 27.6253 61.8713 28.2865 61.5457 28.844C61.9728 28.8925 62.3804 29.0495 62.7296 29.3001C63.0788 29.5508 63.3581 29.8866 63.5407 30.2757C63.7234 30.6649 63.8033 31.0943 63.773 31.523C63.7427 31.9518 63.6031 32.3657 63.3676 32.7253C63.132 33.0848 62.8083 33.3781 62.4273 33.5771C62.0463 33.7761 61.6207 33.8742 61.191 33.8621C60.7613 33.8501 60.3419 33.7282 59.9726 33.5081C59.6034 33.288 59.2967 32.977 59.0817 32.6048H19.7137V31.6384C19.2392 31.9121 18.6885 32.0237 18.1449 31.9562C17.6013 31.8887 17.0946 31.6458 16.7015 31.2644C16.3084 30.8829 16.0503 30.3837 15.9665 29.8424C15.8827 29.3011 15.9776 28.7473 16.2369 28.2648C15.75 27.8695 15.428 27.3069 15.3341 26.6868C15.2401 26.0667 15.3809 25.4339 15.7289 24.9122C16.0768 24.3904 16.607 24.0173 17.2155 23.8657C17.8241 23.7142 18.4673 23.7952 19.0193 24.0928C19.255 23.8019 19.5527 23.5673 19.8907 23.4062C20.2287 23.2451 20.5984 23.1615 20.9729 23.1616C20.9727 22.8034 21.049 22.4493 21.1966 22.1229C21.3442 21.7965 21.5598 21.5054 21.8289 21.269C22.098 21.0326 22.4145 20.8563 22.7572 20.752C23.0999 20.6477 23.4609 20.6177 23.8161 20.664C24.065 20.2235 24.4408 19.8682 24.8946 19.6444C25.3484 19.4207 25.8591 19.3388 26.3601 19.4096C26.0526 18.8926 25.9405 18.2826 26.0439 17.69C26.1473 17.0974 26.4595 16.5615 26.9239 16.1791C27.3883 15.7968 27.9742 15.5934 28.5756 15.6058C29.177 15.6181 29.7541 15.8454 30.2025 16.2464C30.7588 16.1992 31.3151 16.3381 31.784 16.6413C32.2528 16.9445 32.6077 17.3948 32.7929 17.9216C33.1209 17.7008 33.4969 17.5616 33.8897 17.5136C34.1675 17.0226 34.6022 16.6391 35.124 16.4247C35.6458 16.2103 36.2245 16.1774 36.7673 16.3312C36.8994 15.7241 37.2513 15.1872 37.7553 14.8239C38.2593 14.4605 38.8798 14.2963 39.4976 14.3628C40.1154 14.4293 40.6867 14.7218 41.1019 15.1841C41.517 15.6464 41.7474 16.2459 41.7473 16.8672Z" fill="url(#paint3_radial_1_1498)"/>
<path opacity="0.6" d="M37.0264 30.0872C37.8117 30.0872 38.5894 29.9325 39.315 29.632C40.0406 29.3314 40.6998 28.8909 41.2552 28.3356C41.8105 27.7803 42.251 27.121 42.5516 26.3954C42.8521 25.6698 43.0068 24.8922 43.0068 24.1068C43.0068 23.3214 42.8521 22.5438 42.5516 21.8182C42.251 21.0926 41.8105 20.4334 41.2552 19.878C40.6998 19.3227 40.0406 18.8822 39.315 18.5816C38.5894 18.2811 37.8117 18.1264 37.0264 18.1264C35.4404 18.1264 33.9194 18.7564 32.7979 19.8779C31.6764 20.9994 31.0464 22.5204 31.0464 24.1064C31.0464 25.6924 31.6764 27.2134 32.7979 28.3349C33.9194 29.4564 35.4404 30.0872 37.0264 30.0872Z" fill="url(#paint4_radial_1_1498)"/>
<path opacity="0.6" d="M35.1379 26.3096C36.2232 26.3096 37.264 25.8785 38.0314 25.1111C38.7988 24.3437 39.2299 23.3029 39.2299 22.2176C39.2299 21.1323 38.7988 20.0915 38.0314 19.3241C37.264 18.5567 36.2232 18.1256 35.1379 18.1256C34.0526 18.1256 33.0118 18.5567 32.2444 19.3241C31.477 20.0915 31.0459 21.1323 31.0459 22.2176C31.0459 23.3029 31.477 24.3437 32.2444 25.1111C33.0118 25.8785 34.0526 26.3096 35.1379 26.3096Z" fill="url(#paint5_radial_1_1498)"/>
<path opacity="0.6" d="M33.8786 29.4576C34.9639 29.4576 36.0047 29.0265 36.7721 28.2591C37.5395 27.4917 37.9706 26.4509 37.9706 25.3656C37.9706 24.2804 37.5395 23.2395 36.7721 22.4721C36.0047 21.7047 34.9639 21.2736 33.8786 21.2736C32.7934 21.2736 31.7525 21.7047 30.9851 22.4721C30.2177 23.2395 29.7866 24.2804 29.7866 25.3656C29.7866 26.4509 30.2177 27.4917 30.9851 28.2591C31.7525 29.0265 32.7934 29.4576 33.8786 29.4576Z" fill="url(#paint6_radial_1_1498)"/>
<path opacity="0.6" d="M21.9187 31.3456C23.0039 31.3456 24.0447 30.9145 24.8121 30.1471C25.5795 29.3797 26.0107 28.3389 26.0107 27.2536C26.0107 26.1684 25.5795 25.1275 24.8121 24.3601C24.0447 23.5927 23.0039 23.1616 21.9187 23.1616C20.8334 23.1616 19.7926 23.5927 19.0252 24.3601C18.2578 25.1275 17.8267 26.1684 17.8267 27.2536C17.8267 28.3389 18.2578 29.3797 19.0252 30.1471C19.7926 30.9145 20.8334 31.3456 21.9187 31.3456Z" fill="url(#paint7_radial_1_1498)"/>
<path opacity="0.6" d="M24.4362 29.4576C25.5215 29.4576 26.5623 29.0265 27.3297 28.2591C28.0971 27.4917 28.5282 26.4509 28.5282 25.3656C28.5282 24.2804 28.0971 23.2395 27.3297 22.4721C26.5623 21.7047 25.5215 21.2736 24.4362 21.2736C23.351 21.2736 22.3102 21.7047 21.5428 22.4721C20.7754 23.2395 20.3442 24.2804 20.3442 25.3656C20.3442 26.4509 20.7754 27.4917 21.5428 28.2591C22.3102 29.0265 23.351 29.4576 24.4362 29.4576Z" fill="url(#paint8_radial_1_1498)"/>
<path opacity="0.6" d="M24.4361 30.716C25.0204 30.716 25.5808 30.4839 25.994 30.0707C26.4072 29.6575 26.6393 29.0972 26.6393 28.5128C26.6393 27.9285 26.4072 27.3681 25.994 26.9549C25.5808 26.5418 25.0204 26.3096 24.4361 26.3096C23.8518 26.3096 23.2914 26.5418 22.8782 26.9549C22.465 27.3681 22.2329 27.9285 22.2329 28.5128C22.2329 29.0972 22.465 29.6575 22.8782 30.0707C23.2914 30.4839 23.8518 30.716 24.4361 30.716Z" fill="url(#paint9_radial_1_1498)"/>
<path opacity="0.2" d="M59.0592 29.4576C59.6435 29.4576 60.2039 29.2255 60.6171 28.8123C61.0302 28.3991 61.2624 27.8387 61.2624 27.2544C61.2624 26.6701 61.0302 26.1097 60.6171 25.6965C60.2039 25.2833 59.6435 25.0512 59.0592 25.0512C58.4748 25.0512 57.9144 25.2833 57.5013 25.6965C57.0881 26.1097 56.856 26.6701 56.856 27.2544C56.856 27.8387 57.0881 28.3991 57.5013 28.8123C57.9144 29.2255 58.4748 29.4576 59.0592 29.4576Z" fill="url(#paint10_radial_1_1498)"/>
<path opacity="0.2" d="M61.577 31.9752C61.9944 31.9752 62.3946 31.8094 62.6897 31.5143C62.9848 31.2192 63.1506 30.8189 63.1506 30.4016C63.1506 29.9843 62.9848 29.584 62.6897 29.2889C62.3946 28.9938 61.9944 28.828 61.577 28.828C61.1597 28.828 60.7594 28.9938 60.4643 29.2889C60.1692 29.584 60.0034 29.9843 60.0034 30.4016C60.0034 30.8189 60.1692 31.2192 60.4643 31.5143C60.7594 31.8094 61.1597 31.9752 61.577 31.9752Z" fill="url(#paint11_radial_1_1498)"/>
<path opacity="0.3" d="M58.43 32.6048C59.1813 32.6048 59.9018 32.3064 60.4331 31.7751C60.9643 31.2438 61.2628 30.5233 61.2628 29.772C61.2628 29.0207 60.9643 28.3002 60.4331 27.7689C59.9018 27.2377 59.1813 26.9392 58.43 26.9392C57.6787 26.9392 56.9581 27.2377 56.4269 27.7689C55.8956 28.3002 55.5972 29.0207 55.5972 29.772C55.5972 30.5233 55.8956 31.2438 56.4269 31.7751C56.9581 32.3064 57.6787 32.6048 58.43 32.6048Z" fill="url(#paint12_radial_1_1498)"/>
<path opacity="0.2" d="M47.0987 20.0144C47.388 20.0144 47.6745 19.9574 47.9418 19.8467C48.2091 19.7359 48.452 19.5737 48.6566 19.3691C48.8612 19.1645 49.0235 18.9216 49.1342 18.6543C49.2449 18.387 49.3019 18.1005 49.3019 17.8112C49.3019 17.5218 49.2449 17.2353 49.1342 16.968C49.0235 16.7007 48.8612 16.4579 48.6566 16.2533C48.452 16.0487 48.2091 15.8864 47.9418 15.7757C47.6745 15.665 47.388 15.608 47.0987 15.608C46.5144 15.608 45.954 15.8401 45.5408 16.2533C45.1276 16.6665 44.8955 17.2268 44.8955 17.8112C44.8955 18.3955 45.1276 18.9559 45.5408 19.3691C45.954 19.7822 46.5144 20.0144 47.0987 20.0144Z" fill="url(#paint13_radial_1_1498)"/>
<path opacity="0.2" d="M38.9148 17.4968C39.3323 17.4968 39.7326 17.331 40.0278 17.0358C40.323 16.7406 40.4888 16.3403 40.4888 15.9228C40.4888 15.5054 40.323 15.105 40.0278 14.8098C39.7326 14.5146 39.3323 14.3488 38.9148 14.3488C38.4974 14.3488 38.097 14.5146 37.8018 14.8098C37.5067 15.105 37.3408 15.5054 37.3408 15.9228C37.3408 16.3403 37.5067 16.7406 37.8018 17.0358C38.097 17.331 38.4974 17.4968 38.9148 17.4968Z" fill="url(#paint14_radial_1_1498)"/>
<path opacity="0.2" d="M28.2132 19.3856C28.6306 19.3856 29.031 19.2198 29.3261 18.9246C29.6213 18.6294 29.7872 18.2291 29.7872 17.8116C29.7872 17.3942 29.6213 16.9938 29.3261 16.6986C29.031 16.4034 28.6306 16.2376 28.2132 16.2376C27.7957 16.2376 27.3954 16.4034 27.1002 16.6986C26.805 16.9938 26.6392 17.3942 26.6392 17.8116C26.6392 18.2291 26.805 18.6294 27.1002 18.9246C27.3954 19.2198 27.7957 19.3856 28.2132 19.3856Z" fill="url(#paint15_radial_1_1498)"/>
<path opacity="0.2" d="M49.6164 26.94C50.7017 26.94 51.7425 26.5089 52.5099 25.7415C53.2773 24.9741 53.7084 23.9332 53.7084 22.848C53.7084 21.7627 53.2773 20.7219 52.5099 19.9545C51.7425 19.1871 50.7017 18.756 49.6164 18.756C48.5311 18.756 47.4903 19.1871 46.7229 19.9545C45.9555 20.7219 45.5244 21.7627 45.5244 22.848C45.5244 23.9332 45.9555 24.9741 46.7229 25.7415C47.4903 26.5089 48.5311 26.94 49.6164 26.94Z" fill="url(#paint16_radial_1_1498)"/>
<path opacity="0.6" d="M45.84 25.68C46.3822 25.6876 46.9204 25.5873 47.4235 25.3851C47.9265 25.1829 48.3844 24.8827 48.7704 24.502C49.1565 24.1213 49.463 23.6677 49.6723 23.1675C49.8815 22.6674 49.9893 22.1306 49.9893 21.5884C49.9893 21.0462 49.8815 20.5094 49.6723 20.0093C49.463 19.5091 49.1565 19.0555 48.7704 18.6748C48.3844 18.2941 47.9265 17.9939 47.4235 17.7917C46.9204 17.5895 46.3822 17.4892 45.84 17.4968C44.7548 17.4968 43.714 17.9279 42.9466 18.6953C42.1792 19.4627 41.748 20.5035 41.748 21.5888C41.748 22.6741 42.1792 23.7149 42.9466 24.4823C43.714 25.2497 44.7548 25.68 45.84 25.68Z" fill="url(#paint17_radial_1_1498)"/>
<path opacity="0.2" d="M47.7282 27.5688C48.8135 27.5688 49.8543 27.1377 50.6217 26.3703C51.3891 25.6029 51.8202 24.5621 51.8202 23.4768C51.8202 22.3916 51.3891 21.3507 50.6217 20.5833C49.8543 19.8159 48.8135 19.3848 47.7282 19.3848C46.643 19.3848 45.6021 19.8159 44.8348 20.5833C44.0674 21.3507 43.6362 22.3916 43.6362 23.4768C43.6362 24.5621 44.0674 25.6029 44.8348 26.3703C45.6021 27.1377 46.643 27.5688 47.7282 27.5688Z" fill="url(#paint18_radial_1_1498)"/>
<path d="M15.3081 30.0872H51.1905L48.0425 71.6344H17.8265L15.3081 30.0872Z" fill="url(#paint19_linear_1_1498)"/>
<path d="M57.4857 69.116L48.0425 71.6344L51.1905 30.0872L63.1505 33.2344L57.4857 69.116Z" fill="url(#paint20_linear_1_1498)"/>
<path fill-rule="evenodd" clip-rule="evenodd" d="M37.2644 38.3664L37.4676 30.0864H29.9572L30.0404 37.9584C28.7293 38.2514 27.4709 38.7438 26.3092 39.4184L26.0476 30.0872H18.522L20.8636 71.6344H27.218L26.9644 62.6584C28.0233 63.1954 29.1501 63.5864 30.314 63.8208L30.398 71.6344H36.4444L36.6444 63.5536C37.6721 63.2535 38.6594 62.829 39.5844 62.2896L39.2884 71.6344H45.9452L48.138 30.0872H40.6044L40.294 39.8768C39.353 39.2451 38.3345 38.7375 37.2636 38.3664H37.2644ZM50.1268 71.0784L52.4868 70.4496L57.1628 31.6592L53.562 30.7104L50.1268 71.0784ZM53.8308 70.0912L55.6844 69.5968L61.9548 32.92L58.4548 31.9984L53.8308 70.0912ZM43.006 50.86C43.006 56.4224 38.4972 60.932 32.934 60.932C27.3708 60.932 22.862 56.4232 22.862 50.86C22.862 45.2968 27.3708 40.788 32.934 40.788C38.4972 40.788 43.006 45.2968 43.006 50.86ZM37.2684 56.296L35.9124 51.908L39.1988 49.4704C39.2497 49.4327 39.288 49.3802 39.3084 49.3202C39.3288 49.2601 39.3304 49.1953 39.3131 49.1343C39.2957 49.0733 39.2601 49.019 39.2111 48.9787C39.1621 48.9384 39.102 48.9141 39.0388 48.9088C37.6587 48.7974 36.2757 48.7243 34.8916 48.6896L33.2308 44.12C33.2086 44.0594 33.1683 44.007 33.1153 43.97C33.0624 43.933 32.9994 43.9132 32.9348 43.9132C32.8702 43.9132 32.8072 43.933 32.7542 43.97C32.7013 44.007 32.661 44.0594 32.6388 44.12L30.978 48.6896C29.57 48.7248 28.186 48.7992 26.83 48.9088C26.7669 48.9143 26.707 48.9389 26.6582 48.9793C26.6094 49.0197 26.5741 49.074 26.5569 49.1349C26.5397 49.1959 26.5415 49.2606 26.562 49.3206C26.5824 49.3805 26.6207 49.4328 26.6716 49.4704L29.9572 51.9072L28.6004 56.2952C28.5811 56.3576 28.5817 56.4245 28.6021 56.4866C28.6225 56.5486 28.6617 56.6028 28.7142 56.6416C28.7667 56.6805 28.83 56.702 28.8953 56.7033C28.9607 56.7046 29.0248 56.6856 29.0788 56.6488L32.9348 54.024L36.7908 56.6488C36.8447 56.6857 36.9088 56.7049 36.9742 56.7038C37.0395 56.7027 37.1029 56.6812 37.1556 56.6425C37.2082 56.6037 37.2475 56.5496 37.268 56.4875C37.2885 56.4254 37.2892 56.3585 37.27 56.296H37.2684Z" fill="url(#paint21_linear_1_1498)"/>
<path opacity="0.4" d="M13.7347 66.5984C14.1521 66.5984 14.5523 66.4326 14.8474 66.1375C15.1425 65.8424 15.3083 65.4422 15.3083 65.0248C15.3083 64.6075 15.1425 64.2072 14.8474 63.9121C14.5523 63.617 14.1521 63.4512 13.7347 63.4512C13.3174 63.4512 12.9171 63.617 12.622 63.9121C12.3269 64.2072 12.1611 64.6075 12.1611 65.0248C12.1611 65.4422 12.3269 65.8424 12.622 66.1375C12.9171 66.4326 13.3174 66.5984 13.7347 66.5984Z" fill="url(#paint22_radial_1_1498)"/>
<path opacity="0.4" d="M11.2161 68.4872C11.6335 68.4872 12.0339 68.3214 12.3291 68.0262C12.6243 67.731 12.7901 67.3307 12.7901 66.9132C12.7901 66.4958 12.6243 66.0954 12.3291 65.8002C12.0339 65.5051 11.6335 65.3392 11.2161 65.3392C10.7986 65.3392 10.3983 65.5051 10.1031 65.8002C9.80792 66.0954 9.64209 66.4958 9.64209 66.9132C9.64209 67.3307 9.80792 67.731 10.1031 68.0262C10.3983 68.3214 10.7986 68.4872 11.2161 68.4872Z" fill="url(#paint23_radial_1_1498)"/>
<path opacity="0.4" d="M13.1048 68.4872C13.5222 68.4872 13.9226 68.3214 14.2177 68.0262C14.5129 67.731 14.6788 67.3307 14.6788 66.9132C14.6788 66.4958 14.5129 66.0954 14.2177 65.8002C13.9226 65.5051 13.5222 65.3392 13.1048 65.3392C12.6873 65.3392 12.287 65.5051 11.9918 65.8002C11.6966 66.0954 11.5308 66.4958 11.5308 66.9132C11.5308 67.3307 11.6966 67.731 11.9918 68.0262C12.287 68.3214 12.6873 68.4872 13.1048 68.4872Z" fill="url(#paint24_radial_1_1498)"/>
<path opacity="0.4" d="M15.6234 69.7456C15.8301 69.7456 16.0347 69.7049 16.2256 69.6258C16.4165 69.5467 16.59 69.4308 16.7361 69.2847C16.8822 69.1386 16.9981 68.9651 17.0772 68.7742C17.1563 68.5833 17.197 68.3786 17.197 68.172C17.197 67.9653 17.1563 67.7607 17.0772 67.5698C16.9981 67.3789 16.8822 67.2054 16.7361 67.0593C16.59 66.9132 16.4165 66.7973 16.2256 66.7182C16.0347 66.6391 15.8301 66.5984 15.6234 66.5984C15.2061 66.5984 14.8058 66.7642 14.5107 67.0593C14.2156 67.3544 14.0498 67.7546 14.0498 68.172C14.0498 68.5893 14.2156 68.9896 14.5107 69.2847C14.8058 69.5798 15.2061 69.7456 15.6234 69.7456Z" fill="url(#paint25_radial_1_1498)"/>
<path opacity="0.4" d="M65.9842 69.116C66.4016 69.116 66.8018 68.9502 67.0969 68.6551C67.3921 68.36 67.5578 67.9598 67.5578 67.5424C67.5578 67.1251 67.3921 66.7248 67.0969 66.4297C66.8018 66.1346 66.4016 65.9688 65.9842 65.9688C65.5669 65.9688 65.1666 66.1346 64.8715 66.4297C64.5764 66.7248 64.4106 67.1251 64.4106 67.5424C64.4106 67.9598 64.5764 68.36 64.8715 68.6551C65.1666 68.9502 65.5669 69.116 65.9842 69.116Z" fill="url(#paint26_radial_1_1498)"/>
<path opacity="0.4" d="M65.6692 66.5984C66.17 66.5984 66.6503 66.3994 67.0045 66.0453C67.3586 65.6912 67.5576 65.2108 67.5576 64.71C67.5576 64.2092 67.3586 63.7288 67.0045 63.3747C66.6503 63.0206 66.17 62.8216 65.6692 62.8216C65.1683 62.8216 64.688 63.0206 64.3339 63.3747C63.9797 63.7288 63.7808 64.2092 63.7808 64.71C63.7808 65.2108 63.9797 65.6912 64.3339 66.0453C64.688 66.3994 65.1683 66.5984 65.6692 66.5984Z" fill="url(#paint27_radial_1_1498)"/>
<path opacity="0.4" d="M62.5217 66.5984C63.0225 66.5984 63.5029 66.3994 63.857 66.0453C64.2112 65.6912 64.4101 65.2108 64.4101 64.71C64.4101 64.2092 64.2112 63.7288 63.857 63.3747C63.5029 63.0206 63.0225 62.8216 62.5217 62.8216C62.0209 62.8216 61.5405 63.0206 61.1864 63.3747C60.8323 63.7288 60.6333 64.2092 60.6333 64.71C60.6333 65.2108 60.8323 65.6912 61.1864 66.0453C61.5405 66.3994 62.0209 66.5984 62.5217 66.5984Z" fill="url(#paint28_radial_1_1498)"/>
<path opacity="0.4" d="M60.318 65.9688C60.9023 65.9688 61.4627 65.7367 61.8758 65.3235C62.289 64.9103 62.5211 64.3499 62.5211 63.7656C62.5211 63.1813 62.289 62.6209 61.8758 62.2077C61.4627 61.7945 60.9023 61.5624 60.318 61.5624C59.7336 61.5624 59.1732 61.7945 58.7601 62.2077C58.3469 62.6209 58.1147 63.1813 58.1147 63.7656C58.1147 64.3499 58.3469 64.9103 58.7601 65.3235C59.1732 65.7367 59.7336 65.9688 60.318 65.9688Z" fill="url(#paint29_radial_1_1498)"/>
<path opacity="0.4" d="M14.9936 68.4872C15.5781 68.4872 16.1386 68.2551 16.5518 67.8418C16.9651 67.4285 17.1972 66.868 17.1972 66.2836C17.1972 65.6992 16.9651 65.1387 16.5518 64.7254C16.1386 64.3122 15.5781 64.08 14.9936 64.08C14.4092 64.08 13.8487 64.3122 13.4355 64.7254C13.0222 65.1387 12.79 65.6992 12.79 66.2836C12.79 66.868 13.0222 67.4285 13.4355 67.8418C13.8487 68.2551 14.4092 68.4872 14.9936 68.4872Z" fill="url(#paint30_radial_1_1498)"/>
<path fill-rule="evenodd" clip-rule="evenodd" d="M59.3736 64.08C59.8744 64.0802 60.3546 64.2793 60.7086 64.6335C61.0627 64.9877 61.2616 65.468 61.2616 65.9688C61.6225 65.9686 61.9792 66.046 62.3075 66.1957C62.6359 66.3454 62.9283 66.5639 63.1648 66.8364C63.4014 67.109 63.5766 67.4292 63.6786 67.7753C63.7806 68.1215 63.8071 68.4855 63.7561 68.8428C63.7052 69.2001 63.578 69.5422 63.3833 69.8461C63.1886 70.1499 62.9308 70.4084 62.6275 70.6039C62.3242 70.7994 61.9824 70.9275 61.6253 70.9794C61.2681 71.0313 60.904 71.0059 60.5576 70.9048C60.4268 71.3601 60.1297 71.7497 59.7252 71.9961C59.3206 72.2426 58.8382 72.328 58.3736 72.2353C57.9091 72.1427 57.4963 71.8787 57.2173 71.496C56.9382 71.1132 56.8132 70.6394 56.8672 70.1688C56.4376 69.9678 56.0843 69.6336 55.8598 69.2158C55.6352 68.798 55.5515 68.319 55.6209 67.8498C55.6904 67.3806 55.9093 66.9463 56.2453 66.6115C56.5812 66.2767 57.0162 66.0591 57.4856 65.9912V65.9688C57.4856 65.4681 57.6845 64.9879 58.0386 64.6338C58.3926 64.2797 58.8728 64.08 59.3736 64.08Z" fill="url(#paint31_radial_1_1498)"/>
<defs>
<radialGradient id="paint0_radial_1_1498" cx="0" cy="0" r="1" gradientUnits="userSpaceOnUse" gradientTransform="translate(38.6002 69.7832) rotate(-90) scale(6.96161 38.6054)">
<stop offset="0.286" stop-color="#7D2889"/>
<stop offset="0.724" stop-color="#FF66D9" stop-opacity="0.41"/>
<stop offset="1" stop-color="white" stop-opacity="0"/>
</radialGradient>
<radialGradient id="paint1_radial_1_1498" cx="0" cy="0" r="1" gradientUnits="userSpaceOnUse" gradientTransform="translate(38.6002 31.824) rotate(-90) scale(30.6945 38.6054)">
<stop stop-color="#FFCA45"/>
<stop offset="0.453" stop-color="#FF66D9" stop-opacity="0.36"/>
<stop offset="1" stop-color="white" stop-opacity="0"/>
</radialGradient>
<radialGradient id="paint2_radial_1_1498" cx="0" cy="0" r="1" gradientUnits="userSpaceOnUse" gradientTransform="translate(37.6561 64.0808) rotate(180) scale(30.2164 30.2164)">
<stop offset="0.432" stop-color="#FF8B54"/>
<stop offset="0.76" stop-color="#FFBB8D"/>
<stop offset="1" stop-color="#F9DDD1"/>
</radialGradient>
<radialGradient id="paint3_radial_1_1498" cx="0" cy="0" r="1" gradientUnits="userSpaceOnUse" gradientTransform="translate(38.2857 22.8472) rotate(-90) scale(8.4984 22.6056)">
<stop offset="0.302" stop-color="#F9DDD1"/>
<stop offset="0.674" stop-color="#FFBB8D"/>
<stop offset="1" stop-color="#FF8B54"/>
</radialGradient>
<radialGradient id="paint4_radial_1_1498" cx="0" cy="0" r="1" gradientUnits="userSpaceOnUse" gradientTransform="translate(37.0256 24.4584) rotate(90) scale(5.62854)">
<stop offset="0.375" stop-color="#FFF4EB"/>
<stop offset="1" stop-color="#FFF3EB" stop-opacity="0"/>
</radialGradient>
<radialGradient id="paint5_radial_1_1498" cx="0" cy="0" r="1" gradientUnits="userSpaceOnUse" gradientTransform="translate(35.1379 22.4584) rotate(90) scale(3.85111)">
<stop offset="0.375" stop-color="#FFF4EB"/>
<stop offset="1" stop-color="#FFF3EB" stop-opacity="0"/>
</radialGradient>
<radialGradient id="paint6_radial_1_1498" cx="0" cy="0" r="1" gradientUnits="userSpaceOnUse" gradientTransform="translate(33.8786 25.6056) rotate(90) scale(3.85111)">
<stop offset="0.375" stop-color="#FFF4EB"/>
<stop offset="1" stop-color="#FFF3EB" stop-opacity="0"/>
</radialGradient>
<radialGradient id="paint7_radial_1_1498" cx="0" cy="0" r="1" gradientUnits="userSpaceOnUse" gradientTransform="translate(21.9179 27.4944) rotate(90) scale(3.85111)">
<stop offset="0.375" stop-color="#FFF4EB"/>
<stop offset="1" stop-color="#FFF3EB" stop-opacity="0"/>
</radialGradient>
<radialGradient id="paint8_radial_1_1498" cx="0" cy="0" r="1" gradientUnits="userSpaceOnUse" gradientTransform="translate(24.4362 25.6064) rotate(90) scale(3.85111)">
<stop offset="0.375" stop-color="#FFF4EB"/>
<stop offset="1" stop-color="#FFF3EB" stop-opacity="0"/>
</radialGradient>
<radialGradient id="paint9_radial_1_1498" cx="0" cy="0" r="1" gradientUnits="userSpaceOnUse" gradientTransform="translate(24.4361 28.6432) rotate(90) scale(2.07367)">
<stop offset="0.375" stop-color="#FFF4EB"/>
<stop offset="1" stop-color="#FFF3EB" stop-opacity="0"/>
</radialGradient>
<radialGradient id="paint10_radial_1_1498" cx="0" cy="0" r="1" gradientUnits="userSpaceOnUse" gradientTransform="translate(59.06 27.384) rotate(90) scale(2.07367 2.07367)">
<stop offset="0.375" stop-color="#FFF4EB"/>
<stop offset="1" stop-color="#FFF3EB" stop-opacity="0"/>
</radialGradient>
<radialGradient id="paint11_radial_1_1498" cx="0" cy="0" r="1" gradientUnits="userSpaceOnUse" gradientTransform="translate(61.577 30.4944) rotate(90) scale(1.48119 1.48119)">
<stop offset="0.375" stop-color="#FFF4EB"/>
<stop offset="1" stop-color="#FFF3EB" stop-opacity="0"/>
</radialGradient>
<radialGradient id="paint12_radial_1_1498" cx="0" cy="0" r="1" gradientUnits="userSpaceOnUse" gradientTransform="translate(58.4292 29.9384) rotate(90) scale(2.66615)">
<stop offset="0.375" stop-color="#FFF4EB"/>
<stop offset="1" stop-color="#FFF3EB" stop-opacity="0"/>
</radialGradient>
<radialGradient id="paint13_radial_1_1498" cx="0" cy="0" r="1" gradientUnits="userSpaceOnUse" gradientTransform="translate(47.0979 17.9416) rotate(90) scale(2.07367)">
<stop offset="0.375" stop-color="#FFF4EB"/>
<stop offset="1" stop-color="#FFF3EB" stop-opacity="0"/>
</radialGradient>
<radialGradient id="paint14_radial_1_1498" cx="0" cy="0" r="1" gradientUnits="userSpaceOnUse" gradientTransform="translate(38.9156 16.0152) rotate(90) scale(1.4812)">
<stop offset="0.375" stop-color="#FFF4EB"/>
<stop offset="1" stop-color="#FFF3EB" stop-opacity="0"/>
</radialGradient>
<radialGradient id="paint15_radial_1_1498" cx="0" cy="0" r="1" gradientUnits="userSpaceOnUse" gradientTransform="translate(28.2132 17.9048) rotate(90) scale(1.48119)">
<stop offset="0.375" stop-color="#FFF4EB"/>
<stop offset="1" stop-color="#FFF3EB" stop-opacity="0"/>
</radialGradient>
<radialGradient id="paint16_radial_1_1498" cx="0" cy="0" r="1" gradientUnits="userSpaceOnUse" gradientTransform="translate(49.6172 23.088) rotate(90) scale(3.85111 3.85111)">
<stop offset="0.375" stop-color="#FFF4EB"/>
<stop offset="1" stop-color="#FFF3EB" stop-opacity="0"/>
</radialGradient>
<radialGradient id="paint17_radial_1_1498" cx="0" cy="0" r="1" gradientUnits="userSpaceOnUse" gradientTransform="translate(45.8392 21.8288) rotate(90) scale(3.85111)">
<stop offset="0.375" stop-color="#FFF4EB"/>
<stop offset="1" stop-color="#FFF3EB" stop-opacity="0"/>
</radialGradient>
<radialGradient id="paint18_radial_1_1498" cx="0" cy="0" r="1" gradientUnits="userSpaceOnUse" gradientTransform="translate(47.7282 23.7176) rotate(90) scale(3.85111 3.85111)">
<stop offset="0.375" stop-color="#FFF4EB"/>
<stop offset="1" stop-color="#FFF3EB" stop-opacity="0"/>
</radialGradient>
<linearGradient id="paint19_linear_1_1498" x1="48.0425" y1="71.6344" x2="27.2113" y2="17.3368" gradientUnits="userSpaceOnUse">
<stop stop-color="#E0B1CC"/>
<stop offset="0.431" stop-color="#FFF1F1"/>
<stop offset="1" stop-color="#FFC9A5"/>
</linearGradient>
<linearGradient id="paint20_linear_1_1498" x1="48.0425" y1="42.992" x2="66.9281" y2="42.992" gradientUnits="userSpaceOnUse">
<stop stop-color="#D16AE9"/>
<stop offset="1" stop-color="#FF661D"/>
</linearGradient>
<linearGradient id="paint21_linear_1_1498" x1="14.6892" y1="30.0872" x2="60.3092" y2="68.9968" gradientUnits="userSpaceOnUse">
<stop stop-color="#FF661D"/>
<stop offset="0.5" stop-color="#CE3A00"/>
<stop offset="1" stop-color="#A60A5E"/>
</linearGradient>
<radialGradient id="paint22_radial_1_1498" cx="0" cy="0" r="1" gradientUnits="userSpaceOnUse" gradientTransform="translate(13.7347 65.1176) rotate(90) scale(1.4812)">
<stop offset="0.375" stop-color="#F9DDD1"/>
<stop offset="1" stop-color="#FFF3EB" stop-opacity="0"/>
</radialGradient>
<radialGradient id="paint23_radial_1_1498" cx="0" cy="0" r="1" gradientUnits="userSpaceOnUse" gradientTransform="translate(11.2169 67.0064) rotate(90) scale(1.4812 1.4812)">
<stop offset="0.375" stop-color="#F9DDD1"/>
<stop offset="1" stop-color="#FFF3EB" stop-opacity="0"/>
</radialGradient>
<radialGradient id="paint24_radial_1_1498" cx="0" cy="0" r="1" gradientUnits="userSpaceOnUse" gradientTransform="translate(13.1056 67.0056) rotate(90) scale(1.4812)">
<stop offset="0.375" stop-color="#F9DDD1"/>
<stop offset="1" stop-color="#FFF3EB" stop-opacity="0"/>
</radialGradient>
<radialGradient id="paint25_radial_1_1498" cx="0" cy="0" r="1" gradientUnits="userSpaceOnUse" gradientTransform="translate(15.6234 68.2656) rotate(90) scale(1.48119)">
<stop offset="0.375" stop-color="#F9DDD1"/>
<stop offset="1" stop-color="#FFF3EB" stop-opacity="0"/>
</radialGradient>
<radialGradient id="paint26_radial_1_1498" cx="0" cy="0" r="1" gradientUnits="userSpaceOnUse" gradientTransform="translate(65.9842 67.636) rotate(90) scale(1.48119)">
<stop offset="0.375" stop-color="#F9DDD1"/>
<stop offset="1" stop-color="#FFF3EB" stop-opacity="0"/>
</radialGradient>
<radialGradient id="paint27_radial_1_1498" cx="0" cy="0" r="1" gradientUnits="userSpaceOnUse" gradientTransform="translate(65.6692 64.82) rotate(90) scale(1.77744)">
<stop offset="0.375" stop-color="#F9DDD1"/>
<stop offset="1" stop-color="#FFF3EB" stop-opacity="0"/>
</radialGradient>
<radialGradient id="paint28_radial_1_1498" cx="0" cy="0" r="1" gradientUnits="userSpaceOnUse" gradientTransform="translate(62.5209 64.8208) rotate(90) scale(1.77744)">
<stop offset="0.375" stop-color="#F9DDD1"/>
<stop offset="1" stop-color="#FFF3EB" stop-opacity="0"/>
</radialGradient>
<radialGradient id="paint29_radial_1_1498" cx="0" cy="0" r="1" gradientUnits="userSpaceOnUse" gradientTransform="translate(60.3187 63.8952) rotate(90) scale(2.07368 2.07368)">
<stop offset="0.375" stop-color="#F9DDD1"/>
<stop offset="1" stop-color="#FFF3EB" stop-opacity="0"/>
</radialGradient>
<radialGradient id="paint30_radial_1_1498" cx="0" cy="0" r="1" gradientUnits="userSpaceOnUse" gradientTransform="translate(14.9936 66.4136) rotate(90) scale(2.07368 2.07368)">
<stop offset="0.375" stop-color="#F9DDD1"/>
<stop offset="1" stop-color="#FFF3EB" stop-opacity="0"/>
</radialGradient>
<radialGradient id="paint31_radial_1_1498" cx="0" cy="0" r="1" gradientUnits="userSpaceOnUse" gradientTransform="translate(61.2624 68.1724) rotate(111.038) scale(4.38402)">
<stop stop-color="#FDF7F2"/>
<stop offset="1" stop-color="#FFD8BD"/>
</radialGradient>
</defs>
</svg>
