<svg width="89" height="25" viewBox="0 0 89 25" fill="none" xmlns="http://www.w3.org/2000/svg">
<path d="M84.15 11.9245L88.8994 24.5C87.4995 24.2998 86.1003 24.0493 84.6749 23.8244L81.9994 16.8749L79.2498 23.25C77.9001 23.0251 76.5744 22.9493 75.2247 22.7746L80.0499 11.7745L75.6746 0.5H79.7252L82.1749 6.79937L84.8001 0.5H88.8994L84.15 11.9245ZM72.475 0.5H68.8001V22.3C69.9998 22.375 71.2498 22.4245 72.475 22.5744V0.5ZM65.6245 22.0495C62.275 21.8246 58.9247 21.6251 55.5002 21.5494V0.5H59.2494V17.9997C61.3999 18.0499 63.5497 18.2246 65.6245 18.3244V22.0495ZM51.4999 9.02489V12.7748H46.3755V21.2997H42.675V0.5H53.175V4.24993H46.3755V9.02489H51.4999ZM36.3749 4.24993V21.4999C35.1249 21.4999 33.8502 21.4999 32.625 21.5494V4.24993H28.7498V0.5H40.2748V4.24993H36.3749ZM24.7 12.9743C23.0503 12.9743 21.1 12.9743 19.7001 13.05V18.625C21.9001 18.4743 24.1001 18.2996 26.3249 18.2246V21.8246L15.9501 22.6502V0.5H26.3249V4.24993H19.7001V9.29932C21.1502 9.29932 23.375 9.22434 24.7 9.22434V12.9743ZM3.92501 10.8747V23.9744C2.57531 24.1251 1.37482 24.2998 0.100098 24.5V0.5H3.67532L8.55 14.1253V0.5H12.2999V22.9493C10.975 23.175 9.62526 23.25 8.19983 23.4495L3.92501 10.8747Z" fill="#E50914"/>
</svg>
